<svg width="35" height="37" viewBox="0 0 35 37" fill="none" xmlns="http://www.w3.org/2000/svg">
<path d="M31.8074 15.1588C31.8074 23.5308 24.6871 30.3176 15.9037 30.3176C7.12033 30.3176 0 23.5308 0 15.1588C0 6.78683 7.12033 0 15.9037 0C24.6871 0 31.8074 6.78683 31.8074 15.1588ZM4.24401 15.1588C4.24401 21.2967 9.46423 26.2724 15.9037 26.2724C22.3432 26.2724 27.5634 21.2967 27.5634 15.1588C27.5634 9.02095 22.3432 4.04523 15.9037 4.04523C9.46423 4.04523 4.24401 9.02095 4.24401 15.1588Z" fill="#686868"/>
<path d="M23.0477 28.583C22.1392 27.3349 22.3886 25.6379 23.6189 24.6971C24.827 23.7733 26.5816 23.8854 27.6711 24.956L30.6498 27.8829C30.9593 28.187 31.2344 28.5214 31.4706 28.8804L32.9756 31.1681C33.8079 32.4332 33.5236 34.0837 32.3141 35.0087C31.0739 35.957 29.2703 35.8321 28.1647 34.7213L26.0882 32.635C25.8629 32.4086 25.6559 32.1661 25.4693 31.9097L23.0477 28.583Z" fill="#686868"/>
</svg>
